<svg
id="logo-mobile"
class="svg-standalone-icon"
width="100%"
viewBox="218.12720219180528 115 113.74559561638944 135.08978101708968"
>
  <g
  data-paper-data='{"initialText":"BP","selectedEffects":{"container":"","transformation":"","pattern":""},"isIcon":"true","iconType":"initial","iconStyle":"standalone","rawInitialId":543,"monogramSpecial":"melted-letters","bounds":{"x":218.12720219180528,"y":115,"width":113.74559561638944,"height":135.08978101708968},"fillRule":"nonzero","suitableAsStandaloneIcon":true}'
  fill-rule="nonzero"
  >
    <path
    d="M252.71019,186.86776h18.37221c12.15808,0 19.31784,-3.10706 27.42323,-11.21245c4.59305,-4.86323 8.24048,-12.83353 8.24048,-25.26179c0,-3.78251 -0.54036,-10.80718 -2.7018,-15.8055c-4.45796,-11.34754 -14.45461,-19.58802 -29.85484,-19.58802h-32.82682v17.69676h11.34754v-7.83521h20.26347c7.56503,0 12.96862,3.9176 16.48095,7.83521c4.72814,5.53868 5.67377,13.10371 5.67377,17.96694c0,15.26515 -7.70012,26.4776 -23.37053,26.4776h-19.04766v-31.07065h-11.34754v104.01913h11.34754zM229.33965,144.31448h63.62729c-0.67545,-4.05269 -2.16144,-7.29485 -4.18778,-9.86155h-70.65196v99.02081h21.61436v-9.99664h-10.40191v-37.14969h10.40191v-9.32119h-10.40191zM315.12166,181.0589c10.26682,-3.64742 13.10371,-9.05102 13.10371,-20.26347c0,-9.99664 -2.02635,-15.94059 -6.88958,-20.53365c-3.64742,-3.37724 -7.70012,-4.86323 -15.40024,-5.53868c0.94563,2.29653 2.16144,9.05102 2.29653,11.48263c5.67377,2.16144 7.70012,6.75449 7.70012,14.72479c0,7.02467 -1.62108,11.34754 -5.13341,13.50898c-2.29653,1.48599 -4.86323,2.16144 -11.07736,2.43162c-2.29653,2.7018 -7.70012,7.02467 -13.64407,9.18611h3.9176l12.42826,0.67545c14.04934,1.08072 17.1564,5.2685 17.1564,17.83185c0,11.48263 -2.83689,16.48095 -12.56335,18.10203c-1.08072,0.27018 -9.45628,0.81054 -11.8879,0.81054h-40.66202v9.99664h46.06562c0.54036,0 5.40359,-0.27018 6.6194,-0.27018c7.83521,-0.81054 13.2388,-2.83689 17.56167,-6.88958c4.99832,-4.72814 7.15976,-11.34754 7.15976,-22.28981c0,-13.91425 -5.2685,-20.93892 -16.75113,-22.96526z"
    data-paper-data='{"isPathIcon":true}'
    style="fill: rgb(0, 0, 0)"
    >
    </path>
  </g>
</svg>